<svg xmlns="http://www.w3.org/2000/svg" viewBox="0 0 64 64" id="security">
  <path fill="#144cc9" d="M39.96 59.25c-4.86 1.47-10.04 1.65-15 .51-.54-.12-1.07.21-1.2.75-.12.54.21 1.07.75 1.2 2.3.53 4.64.79 6.99.79 3.05 0 6.1-.45 9.04-1.34.53-.16.83-.72.67-1.25-.16-.53-.72-.83-1.25-.67zM58.46 44.73c-.49-.26-1.09-.08-1.35.41-2.39 4.48-5.94 8.27-10.24 10.97-.47.29-.61.91-.32 1.38.19.3.52.47.85.47.18 0 .36-.05.53-.15 4.6-2.88 8.39-6.94 10.95-11.72.26-.49.08-1.09-.41-1.35zM54.53 46.5c2.91-4.46 4.45-9.65 4.45-15 0-.55-.45-1-1-1s-1 .45-1 1c0 4.96-1.43 9.77-4.12 13.9-2.19 3.36-5.18 6.19-8.65 8.19-.48.28-.64.89-.37 1.37.19.32.52.5.87.5.17 0 .34-.04.5-.13 3.74-2.16 6.96-5.21 9.32-8.83z"></path>
  <path fill="#144cc9" d="M31.96 55.44h.02c6.22-.12 12.07-2.61 16.48-7.02l.3-.33c4.31-4.49 6.69-10.38 6.69-16.59 0-.55-.45-1-1-1s-1 .45-1 1c0 5.69-2.18 11.09-6.14 15.21l-.29.31c-4.02 4.02-9.38 6.3-15.08 6.41-.55.01-.99.47-.98 1.02.01.55.46.98 1 .98zM24.04 4.75c4.86-1.47 10.04-1.65 15-.51.54.12 1.07-.21 1.2-.75.12-.54-.21-1.07-.75-1.2-2.3-.53-4.64-.79-6.99-.79-3.05 0-6.1.45-9.04 1.34-.53.16-.83.72-.67 1.25.16.53.72.83 1.25.67zM5.54 19.27c.49.26 1.09.08 1.35-.41 2.39-4.48 5.94-8.27 10.24-10.97.47-.29.61-.91.32-1.38-.19-.3-.52-.47-.85-.47-.18 0-.36.05-.53.15-4.6 2.88-8.39 6.94-10.95 11.72-.26.49-.08 1.09.41 1.35zM9.47 17.5c-2.91 4.46-4.45 9.65-4.45 15 0 .55.45 1 1 1s1-.45 1-1c0-4.96 1.43-9.77 4.12-13.9 2.19-3.36 5.18-6.19 8.65-8.19.48-.28.64-.89.37-1.37-.19-.32-.52-.5-.87-.5-.17 0-.34.04-.5.13-3.74 2.16-6.96 5.21-9.32 8.83z"></path>
  <path fill="#144cc9" d="M32.04,8.56h-.02c-6.22,.12-12.07,2.61-16.48,7.02l-.3,.33c-4.31,4.49-6.69,10.38-6.69,16.59,0,.55,.45,1,1,1s1-.45,1-1c0-5.69,2.18-11.09,6.14-15.21l.29-.31c4.02-4.02,9.38-6.3,15.08-6.41,.55-.01,.99-.47,.98-1.02-.01-.55-.46-.98-1-.98Z"></path>
  <path fill="#58def4" d="M47.34,21.85l-14.83-8.82c-.32-.19-.71-.19-1.02,0l-14.83,8.82c-.3,.18-.49,.51-.49,.86v5.25c0,15.77,15.26,23,15.41,23.07,.13,.06,.28,.09,.42,.09s.29-.03,.42-.09c.15-.07,15.41-7.3,15.41-23.07v-5.25c0-.35-.19-.68-.49-.86Z"></path>
  <path fill="#144cc9" d="M32,51.12c-.14,0-.29-.03-.42-.09-.15-.07-15.41-7.3-15.41-23.07v-5.25c0-.35,.19-.68,.49-.86l14.83-8.82c.32-.19,.71-.19,1.02,0l14.83,8.82c.3,.18,.49,.51,.49,.86v5.25c0,15.77-15.26,23-15.41,23.07-.13,.06-.28,.09-.42,.09Zm-13.83-27.84v4.68c0,13.05,11.47,19.8,13.83,21.04,2.36-1.25,13.83-7.99,13.83-21.04v-4.68l-13.83-8.23-13.83,8.23Z"></path>
  <path fill="#144cc9" d="M30.78,37.59c-.26,0-.51-.1-.71-.29l-4.59-4.59c-.39-.39-.39-1.02,0-1.41s1.02-.39,1.41,0l3.88,3.88,6.88-6.88c.39-.39,1.02-.39,1.41,0s.39,1.02,0,1.41l-7.59,7.59c-.2,.2-.45,.29-.71,.29Z"></path>
</svg>
